<?xml version="1.0" standalone="no"?>
<!DOCTYPE svg PUBLIC "-//W3C//DTD SVG 20010904//EN" "http://www.w3.org/TR/2001/REC-SVG-20010904/DTD/svg10.dtd">
<!-- Created using Krita: https://krita.org -->
<svg xmlns="http://www.w3.org/2000/svg" 
    xmlns:xlink="http://www.w3.org/1999/xlink"
    xmlns:krita="http://krita.org/namespaces/svg/krita"
    xmlns:sodipodi="http://sodipodi.sourceforge.net/DTD/sodipodi-0.dtd"
    width="48pt"
    height="48pt"
    viewBox="0 0 48 48">
<defs/>
<g id="logotype">
    <g transform="matrix(1.5 0 0 1.5 0 1.5)" fill="none">
        <g transform="translate(-102, -882)" fill="none">
            <path transform="translate(102, 882)" fill="#500050" d="M24 0C20.667 0 17.982 1.842 15.969 4.235C14.013 1.76 11.333 0 8 0C3.306 0 0 4.036 0 8.438C0 10.799 0.967 12.499 2.026 14.097L14.459 29.003C15.854 30.312 16.118 30.312 17.513 29.003L29.974 14.097C31.22 12.499 32 10.799 32 8.438C32 4.036 28.694 0 24 0"/>
        </g>
    </g>
    <path transform="matrix(0.635111202847398 0 0 0.635111202847398 10.3114599143726 6.04804596126854)" fill="#c94747" d="M6.19099 34.0313C9.89099 32.1313 11.491 31.5313 5.49099 29.7313C6.59099 29.6313 12.991 31.8313 14.991 29.4313C16.691 28.2313 8.49099 26.7313 7.99099 25.5313C9.59099 26.5313 16.591 29.6313 17.891 26.8313C17.691 25.8313 16.691 23.9313 13.191 22.9313C14.191 23.3313 16.291 23.1313 17.091 22.3313C16.791 21.4313 12.891 19.0313 12.491 15.9313C13.791 17.7313 15.391 20.8313 17.391 21.4313C17.391 21.4313 17.991 19.9313 20.191 19.3313C18.191 19.3313 16.191 18.1313 15.891 17.1313C17.291 19.4313 22.291 18.2313 24.391 20.1313C24.391 20.1313 23.991 18.8313 25.391 17.1313C25.491 16.7313 24.591 16.0313 25.091 15.8313C25.291 16.0313 25.291 16.7313 25.891 16.6313C27.191 16.1313 28.391 14.4313 27.591 12.8313C28.191 13.1313 28.291 14.5313 28.391 15.3313C29.191 15.3313 30.591 15.2313 32.091 16.6313C32.391 16.4313 32.291 15.9313 32.591 15.7313C32.891 16.7313 32.891 18.8313 34.291 18.7313C35.391 18.7313 36.791 16.3313 36.991 15.3313C36.891 17.6313 38.191 17.3313 38.591 17.4313C39.591 17.3313 40.691 14.0313 41.191 14.0313C40.991 14.4313 40.991 15.7313 41.091 16.4313C42.191 16.6313 44.991 15.3313 45.591 14.7313C45.491 15.2313 45.291 15.4313 45.391 16.0313C46.391 16.2313 52.091 13.5313 53.391 10.7313C51.891 10.0313 50.691 9.2313 49.491 8.8313C48.791 9.4313 48.791 11.9313 47.891 11.7313C48.291 11.1313 49.291 9.0313 48.491 8.3313C44.691 5.7313 46.591 10.3313 46.191 10.7313C46.191 9.9313 44.491 5.2313 42.891 5.6313C42.591 6.0313 41.991 3.3313 40.891 9.2313C40.991 8.2313 42.191 4.3313 36.391 2.7313C36.091 4.2313 38.091 8.7313 37.591 9.7313C37.391 7.8313 35.891 3.2313 34.891 2.0313C32.691 1.1313 28.791 -0.468701 27.091 0.131299C25.091 0.631299 30.091 5.1313 28.691 6.9313C28.991 4.3313 25.891 1.5313 23.791 1.5313C19.491 3.7313 22.991 7.8313 22.291 9.8313C21.891 7.4313 20.691 6.9313 20.891 4.1313C19.791 4.9313 19.691 6.3313 18.491 7.4313C17.891 7.6313 17.591 7.3313 16.991 7.4313C15.991 8.5313 17.891 10.8313 17.491 11.7313C16.791 10.2313 16.791 8.0313 15.091 7.8313C13.691 6.9313 10.791 7.6313 8.59099 9.1313C6.09099 9.8313 3.69099 16.6313 3.79099 17.5313C3.99099 18.7313 6.09099 18.9313 6.19099 20.1313C5.29099 19.6313 4.99099 18.6313 3.59099 18.7313C3.09099 19.8313 2.79099 20.6313 2.69099 22.2313C4.19099 23.2313 6.09099 24.1313 6.59099 25.6313C5.19099 25.1313 4.39099 23.0313 2.59099 23.6313C0.290994 30.1313 3.09099 28.9313 3.39099 29.8313C2.59099 30.1313 1.79099 29.3313 1.49099 29.8313C-0.309006 33.1313 1.79099 33.1313 1.99099 33.7313L0.690994 33.7313C-0.00900555 34.3313 -0.109006 36.4313 0.0909944 37.4313C1.59099 36.7313 4.79099 36.0313 3.99099 34.2313C4.79099 34.4313 5.69099 34.4313 6.19099 34.0313"/>
    <path transform="matrix(0.635111202847398 0 0 0.635111202847398 10.897169617696 14.197347844037)" fill="#ed4c5c" d="M44.7688 4.2C43.0688 4.6 37.8688 5 36.5688 6.5C38.0688 8.9 43.9688 9.3 45.4688 11.7C43.1688 10.3 38.4688 8.3 35.4688 7.5C31.8688 6.7 32.9688 8.7 31.7688 11.6C32.2688 12.7 33.9688 15.7 34.0688 16.7C33.1688 15.7 32.3688 11.1 30.8688 13.6C28.4688 17.5 32.1688 18.3 33.7688 21.9C32.7688 20.5 30.7688 17.8 29.4688 16.2L28.5688 17.7C27.0688 17.3 26.3688 17.4 26.3688 17.4C27.2688 19.6 30.0688 24.1 30.8688 25.5C28.1688 22.8 26.9688 20.2 25.5688 17.3C24.3688 17.3 23.2688 16.8 22.0688 16.6C21.9688 19.1 23.0688 20.7 23.0688 22.5C22.1688 19.8 21.5688 14 16.2688 15.9C14.7688 19 16.9688 25 17.0688 27.6C16.0688 24.7 16.1688 20.6 14.8688 18.1C13.1688 18 10.4688 17.9 10.9688 19C7.56878 19.9 -1.33122 25.2 0.168778 26.6C2.86878 29.2 8.76878 32.6 12.5688 33.3C12.7688 32.3 13.1688 30.6 13.5688 30C13.9688 31.6 14.4688 33.6 16.0688 34C16.4688 33.5 15.8688 32.2 15.9688 31.4C17.3688 33.1 21.1688 35.1 23.8688 33.8C24.1688 32.8 23.0688 31.4 23.6688 30.7C24.0688 33.4 30.2688 33.6 30.7688 31.2C30.9688 30.1 29.8688 29.4 29.8688 28.7C30.7688 29.7 31.1688 31 32.6688 30.9C35.9688 30.7 33.7688 26.1 33.1688 24.3C33.9688 25.9 34.9688 28.3 36.1688 29.5C37.0688 29.3 37.4688 28 36.9688 26.9C39.8688 28.9 40.1688 27.3 39.0688 23.3C39.0688 23.2 38.9688 23.1 38.9688 23C38.9688 23.1 39.0688 23.2 39.0688 23.3C39.3688 24.1 40.4688 26 41.1688 26.3C43.7688 25.2 40.0688 20.8 39.5688 20C40.6688 20.9 41.9688 23.8 43.6688 24.2C43.9688 24 43.9688 22.4 44.1688 22.1C43.5688 18.2 39.6688 15.7 38.1688 13.2C40.5688 15.4 42.9688 20 46.0688 21.6C47.0688 20.3 45.1688 16.8 44.5688 15.8C45.4688 16.2 46.9688 18.5 48.0688 18.6C49.1688 18 47.5688 15.1 46.8688 14.1C47.3688 14.3 48.7688 15.8 49.5688 15.6C49.8688 14.2 48.0688 12.5 47.6688 11.4C48.1688 11.5 49.7688 13.1 50.4688 13.1C51.1688 10.2 52.3688 6.8 52.1688 0C51.1688 0.1 46.0688 3.9 44.7688 4.2"/>
</g>
</svg>
